<svg width="18" height="18" viewBox="0 0 18 18" fill="none" xmlns="http://www.w3.org/2000/svg">
<path d="M12.7751 10.7819L12.7547 10.95H12.924H15.966H16.0831L16.1115 10.8364C16.2579 10.2508 16.35 9.63548 16.35 9C16.35 8.36452 16.2579 7.74916 16.1115 7.16362L16.0831 7.05H15.966H12.924H12.7547L12.7751 7.21805C12.8468 7.80935 12.9 8.39662 12.9 9C12.9 9.60337 12.8468 10.1907 12.7751 10.7819ZM11.199 15.7327L11.0161 16.071L11.3798 15.9458C13.0556 15.3689 14.4677 14.2079 15.3577 12.6753L15.4886 12.45H15.228H12.573H12.4566L12.4277 12.5628C12.1425 13.6768 11.7328 14.7452 11.199 15.7327ZM11.106 10.95H11.2369L11.2546 10.8203C11.336 10.2237 11.4 9.62198 11.4 9C11.4 8.37811 11.336 7.76742 11.2546 7.17943L11.2367 7.05H11.106H6.894H6.76531L6.74574 7.17719C6.65477 7.76853 6.6 8.37923 6.6 9C6.6 9.62092 6.6548 10.2226 6.74569 10.8225L6.76501 10.95H6.894H11.106ZM8.87663 16.2493L9 16.4277L9.12337 16.2493C9.87827 15.1579 10.4891 13.9462 10.8632 12.6413L10.9181 12.45H10.719H7.281H7.08195L7.13681 12.6413C7.51094 13.9462 8.12173 15.1579 8.87663 16.2493ZM5.4 5.55H5.51377L5.54444 5.44044C5.85722 4.32338 6.25847 3.25427 6.79196 2.26733L6.97395 1.93064L6.61165 2.05401C4.93441 2.62511 3.52299 3.78823 2.64186 5.3254L2.51312 5.55H2.772H5.4ZM2.772 12.45H2.51192L2.64216 12.6751C3.5286 14.2073 4.93773 15.3685 6.61108 15.9458L6.97503 16.0714L6.79196 15.7327C6.25847 14.7457 5.85722 13.6766 5.54444 12.5596L5.51377 12.45H5.4H2.772ZM1.88848 10.8364L1.91688 10.95H2.034H5.076H5.24528L5.22491 10.7819C5.15324 10.1907 5.1 9.60337 5.1 9C5.1 8.39662 5.15324 7.80935 5.22491 7.21805L5.24528 7.05H5.076H2.034H1.91688L1.88848 7.16362C1.74209 7.74916 1.65 8.36452 1.65 9C1.65 9.63548 1.74209 10.2508 1.88848 10.8364ZM9.12337 1.74167L9 1.56331L8.87663 1.74167C8.12155 2.83336 7.51086 4.05405 7.13681 5.35866L7.08195 5.55H7.281H10.719H10.9181L10.8632 5.35866C10.4891 4.05405 9.87845 2.83336 9.12337 1.74167ZM15.228 5.55H15.488L15.3578 5.32491C14.4758 3.79977 13.0701 2.6329 11.3796 2.05409L11.0184 1.93043L11.1988 2.26687C11.7362 3.26939 12.1489 4.33393 12.4276 5.43675L12.4562 5.55H12.573H15.228ZM0.15 9C0.15 4.13255 4.10614 0.15 9 0.15C10.1622 0.15 11.313 0.378912 12.3867 0.823666C13.4605 1.26842 14.4361 1.92031 15.2579 2.74211C16.0797 3.5639 16.7316 4.53952 17.1763 5.61325C17.6211 6.68698 17.85 7.8378 17.85 9C17.85 11.3472 16.9176 13.5982 15.2579 15.2579C13.5982 16.9176 11.3472 17.85 9 17.85C7.8378 17.85 6.68698 17.6211 5.61325 17.1763C4.53952 16.7316 3.5639 16.0797 2.74211 15.2579C1.08241 13.5982 0.15 11.3472 0.15 9Z" fill="#E81E25" stroke="#181818" stroke-width="0.3"/>
</svg>
